# xmcd CD database file
#
# Track frame offsets:
#	150
#	15176
#	28963
#	49466
#	63465
#	79610
#	98192
#	114716
#	131074
#	138478
#	153982
#	169492
#	196949
#	205530
#
# Disc length: 3062 seconds
#
# Revision: 0
# Processed by: cddbd v1.5.1PL0 Copyright (c) Steve Scherf et al.
# Submitted via: CDex 1.51
#
DISCID=c10bf40e
DTITLE=Harrison Kennedy - Voice Story
DYEAR=2005
DGENRE=Blues
TTITLE0=Bad Luck And Trouble
TTITLE1=What A Way To Go
TTITLE2=Bad Attitude
TTITLE3=One Track Mind
TTITLE4=40 Acres And A Mule
TTITLE5=Too Far To Fall
TTITLE6=Bob Lo Island
TTITLE7=There Ain't No Words
TTITLE8=Recipe For Loving
TTITLE9=Hummin' Blues
TTITLE10=Going Down
TTITLE11=It's Hard
TTITLE12=Let Her Talk
TTITLE13=Make A Difference
EXTD=YEAR: 2005
EXTT0=
EXTT1=
EXTT2=
EXTT3=
EXTT4=
EXTT5=
EXTT6=
EXTT7=
EXTT8=
EXTT9=
EXTT10=
EXTT11=
EXTT12=
EXTT13=
PLAYORDER=
